<?xml version="1.0" encoding="UTF-8"?>
<svg xmlns="http://www.w3.org/2000/svg" width="1500" height="2600" viewBox="0 0 1500 2600">
  <style>text { dominant-baseline: auto; }</style>
  <rect width="1500" height="2600" fill="#F7F6F2"/><defs>
  <pattern id="dots" x="0" y="0" width="24" height="24" patternUnits="userSpaceOnUse">
    <circle cx="1" cy="1" r="1" fill="rgba(0,0,0,0.055)"/>
  </pattern>
</defs>
<rect width="1500" height="2600" fill="url(#dots)"/><rect x="0" y="0" width="1500" height="70" fill="#1A1A1A"/><text x="750" y="28" font-family="'DM Sans','Helvetica Neue',sans-serif" font-size="16" font-weight="500" fill="#FFFFFF" text-anchor="middle">notebook</text><text x="750" y="50" dy="0" font-family="'DM Mono','Courier New',monospace" font-size="9.5" font-weight="400" fill="#888888" text-anchor="middle">MVP · USER FLOWS · BENCH SCIENTIST</text><rect x="40" y="82" width="340" height="32" rx="3" fill="#1A1A1A"/><text x="210" y="102" dy="0" font-family="'DM Mono','Courier New',monospace" font-size="9" font-weight="700" fill="#FFFFFF" text-anchor="middle">01 · SIGN UP &amp; ONBOARDING</text><rect x="400" y="82" width="340" height="32" rx="3" fill="#1A5C3A"/><text x="570" y="102" dy="0" font-family="'DM Mono','Courier New',monospace" font-size="9" font-weight="700" fill="#FFFFFF" text-anchor="middle">02 · CREATE EXPERIMENT</text><rect x="760" y="82" width="340" height="32" rx="3" fill="#1D3A6B"/><text x="930" y="102" dy="0" font-family="'DM Mono','Courier New',monospace" font-size="9" font-weight="700" fill="#FFFFFF" text-anchor="middle">03 · START FROM TEMPLATE</text><rect x="1120" y="82" width="340" height="32" rx="3" fill="#6B2D5E"/><text x="1290" y="102" dy="0" font-family="'DM Mono','Courier New',monospace" font-size="9" font-weight="700" fill="#FFFFFF" text-anchor="middle">04 · SHARE &amp; COMMENT</text><rect x="36" y="126" width="348" height="2434" rx="4" fill="rgba(255,255,255,0.45)"/><rect x="396" y="126" width="348" height="2434" rx="4" fill="rgba(255,255,255,0.45)"/><rect x="756" y="126" width="348" height="2434" rx="4" fill="rgba(255,255,255,0.45)"/><rect x="1116" y="126" width="348" height="2434" rx="4" fill="rgba(255,255,255,0.45)"/><rect x="80" y="140" width="260" height="40" rx="20" fill="#1A1A1A"/>
<text x="210" y="164" dy="0" font-family="'DM Mono','Courier New',monospace" font-size="10.5" font-weight="600" fill="#FFFFFF" text-anchor="middle">Researcher hears about notebook</text><line x1="210" y1="185" x2="210" y2="217" stroke="#CCCCCC" stroke-width="1.5" /><polygon points="210,225 205,216 215,216" fill="#CCCCCC"/><rect x="80" y="225" width="260" height="50" rx="4" fill="#EBEBEB" stroke="#1A1A1A" stroke-width="1.5"/>
<rect x="80" y="225" width="4" height="50" rx="2" fill="#1A1A1A"/>
<rect x="92" y="241" width="16" height="11" rx="2" fill="none" stroke="#1A1A1A" stroke-width="1.2"/>
<line x1="98" y1="252" x2="104" y2="252" stroke="#1A1A1A" stroke-width="1"/>
<text x="216" y="244" dy="0" font-family="'DM Mono','Courier New',monospace" font-size="11" font-weight="600" fill="#1A1A1A" text-anchor="middle">Landing page</text>
<text x="216" y="259" dy="0" font-family="'DM Mono','Courier New',monospace" font-size="9.5" font-weight="400" fill="#666666" text-anchor="middle">value prop + demo GIF</text><line x1="210" y1="275" x2="210" y2="307" stroke="#CCCCCC" stroke-width="1.5" /><polygon points="210,315 205,306 215,306" fill="#CCCCCC"/><rect x="80" y="315" width="260" height="50" rx="4" fill="#FFFFFF" stroke="#CCCCCC" stroke-width="1.2"/>
<rect x="80" y="315" width="4" height="50" rx="2" fill="#1A1A1A" opacity="0.5"/>
<text x="216" y="345" dy="0" font-family="'DM Mono','Courier New',monospace" font-size="10.5" font-weight="500" fill="#1A1A1A" text-anchor="middle">Clicks 'Get early access'</text><line x1="210" y1="365" x2="210" y2="397" stroke="#CCCCCC" stroke-width="1.5" /><polygon points="210,405 205,396 215,396" fill="#CCCCCC"/><rect x="80" y="405" width="260" height="50" rx="4" fill="#EBEBEB" stroke="#1A1A1A" stroke-width="1.5"/>
<rect x="80" y="405" width="4" height="50" rx="2" fill="#1A1A1A"/>
<rect x="92" y="421" width="16" height="11" rx="2" fill="none" stroke="#1A1A1A" stroke-width="1.2"/>
<line x1="98" y1="432" x2="104" y2="432" stroke="#1A1A1A" stroke-width="1"/>
<text x="216" y="424" dy="0" font-family="'DM Mono','Courier New',monospace" font-size="11" font-weight="600" fill="#1A1A1A" text-anchor="middle">Sign up screen</text>
<text x="216" y="439" dy="0" font-family="'DM Mono','Courier New',monospace" font-size="9.5" font-weight="400" fill="#666666" text-anchor="middle">name · email · institution</text><line x1="210" y1="455" x2="210" y2="487" stroke="#CCCCCC" stroke-width="1.5" /><polygon points="210,495 205,486 215,486" fill="#CCCCCC"/><rect x="80" y="495" width="260" height="50" rx="4" fill="#FFFFFF" stroke="#CCCCCC" stroke-width="1.2"/>
<rect x="80" y="495" width="4" height="50" rx="2" fill="#1A1A1A" opacity="0.5"/>
<text x="216" y="514" dy="0" font-family="'DM Mono','Courier New',monospace" font-size="10.5" font-weight="500" fill="#1A1A1A" text-anchor="middle">Email verified</text>
<text x="216" y="529" dy="0" font-family="'DM Mono','Courier New',monospace" font-size="9.5" font-weight="400" fill="#666666" text-anchor="middle">clicks link in inbox</text><line x1="210" y1="545" x2="210" y2="577" stroke="#CCCCCC" stroke-width="1.5" /><polygon points="210,585 205,576 215,576" fill="#CCCCCC"/><rect x="80" y="585" width="260" height="50" rx="4" fill="#EBEBEB" stroke="#1A1A1A" stroke-width="1.5"/>
<rect x="80" y="585" width="4" height="50" rx="2" fill="#1A1A1A"/>
<rect x="92" y="601" width="16" height="11" rx="2" fill="none" stroke="#1A1A1A" stroke-width="1.2"/>
<line x1="98" y1="612" x2="104" y2="612" stroke="#1A1A1A" stroke-width="1"/>
<text x="216" y="604" dy="0" font-family="'DM Mono','Courier New',monospace" font-size="11" font-weight="600" fill="#1A1A1A" text-anchor="middle">Guided tour — Step 1 of 3</text>
<text x="216" y="619" dy="0" font-family="'DM Mono','Courier New',monospace" font-size="9.5" font-weight="400" fill="#666666" text-anchor="middle">canvas intro + block types</text><line x1="210" y1="635" x2="210" y2="667" stroke="#CCCCCC" stroke-width="1.5" /><polygon points="210,675 205,666 215,666" fill="#CCCCCC"/><rect x="80" y="675" width="260" height="50" rx="4" fill="#EBEBEB" stroke="#1A1A1A" stroke-width="1.5"/>
<rect x="80" y="675" width="4" height="50" rx="2" fill="#1A1A1A"/>
<rect x="92" y="691" width="16" height="11" rx="2" fill="none" stroke="#1A1A1A" stroke-width="1.2"/>
<line x1="98" y1="702" x2="104" y2="702" stroke="#1A1A1A" stroke-width="1"/>
<text x="216" y="694" dy="0" font-family="'DM Mono','Courier New',monospace" font-size="11" font-weight="600" fill="#1A1A1A" text-anchor="middle">Guided tour — Step 2 of 3</text>
<text x="216" y="709" dy="0" font-family="'DM Mono','Courier New',monospace" font-size="9.5" font-weight="400" fill="#666666" text-anchor="middle">templates overview</text><line x1="210" y1="725" x2="210" y2="757" stroke="#CCCCCC" stroke-width="1.5" /><polygon points="210,765 205,756 215,756" fill="#CCCCCC"/><rect x="80" y="765" width="260" height="50" rx="4" fill="#EBEBEB" stroke="#1A1A1A" stroke-width="1.5"/>
<rect x="80" y="765" width="4" height="50" rx="2" fill="#1A1A1A"/>
<rect x="92" y="781" width="16" height="11" rx="2" fill="none" stroke="#1A1A1A" stroke-width="1.2"/>
<line x1="98" y1="792" x2="104" y2="792" stroke="#1A1A1A" stroke-width="1"/>
<text x="216" y="784" dy="0" font-family="'DM Mono','Courier New',monospace" font-size="11" font-weight="600" fill="#1A1A1A" text-anchor="middle">Guided tour — Step 3 of 3</text>
<text x="216" y="799" dy="0" font-family="'DM Mono','Courier New',monospace" font-size="9.5" font-weight="400" fill="#666666" text-anchor="middle">sharing + collaboration</text><line x1="210" y1="815" x2="210" y2="847" stroke="#CCCCCC" stroke-width="1.5" /><polygon points="210,855 205,846 215,846" fill="#CCCCCC"/><polygon points="210,880 340,918 210,956 80,918" fill="#FFFDF5" stroke="#1A1A1A" stroke-width="1.5"/>
<text x="210" y="922" dy="0" font-family="'DM Mono','Courier New',monospace" font-size="9.5" font-weight="600" fill="#1A1A1A" text-anchor="middle">Blank or template?</text><line x1="210" y1="956" x2="210" y2="988" stroke="#CCCCCC" stroke-width="1.5" /><polygon points="210,996 205,987 215,987" fill="#CCCCCC"/><text x="192" y="986" font-family="'DM Mono',monospace" font-size="9" fill="#1A1A1A" text-anchor="middle">blank</text><text x="280" y="918" font-family="'DM Mono',monospace" font-size="9" fill="#1A1A1A" text-anchor="middle">template →</text><line x1="340" y1="918" x2="380" y2="918" stroke="#1A1A1A" stroke-width="1.2" stroke-dasharray="4,3"/><text x="388" y="922" dy="0" font-family="'DM Mono','Courier New',monospace" font-size="9" font-weight="400" fill="#1A1A1A" text-anchor="start">→ Flow C</text><rect x="80" y="991" width="260" height="50" rx="4" fill="#EBEBEB" stroke="#1A1A1A" stroke-width="1.5"/>
<rect x="80" y="991" width="4" height="50" rx="2" fill="#1A1A1A"/>
<rect x="92" y="1007" width="16" height="11" rx="2" fill="none" stroke="#1A1A1A" stroke-width="1.2"/>
<line x1="98" y1="1018" x2="104" y2="1018" stroke="#1A1A1A" stroke-width="1"/>
<text x="216" y="1010" dy="0" font-family="'DM Mono','Courier New',monospace" font-size="11" font-weight="600" fill="#1A1A1A" text-anchor="middle">Empty canvas — experiment 1</text>
<text x="216" y="1025" dy="0" font-family="'DM Mono','Courier New',monospace" font-size="9.5" font-weight="400" fill="#666666" text-anchor="middle">dot grid · first block prompt</text><line x1="210" y1="1041" x2="210" y2="1073" stroke="#CCCCCC" stroke-width="1.5" /><polygon points="210,1081 205,1072 215,1072" fill="#CCCCCC"/><rect x="80" y="1086" width="260" height="40" rx="20" fill="#1A1A1A"/>
<text x="210" y="1110" dy="0" font-family="'DM Mono','Courier New',monospace" font-size="10.5" font-weight="600" fill="#FFFFFF" text-anchor="middle">Into Flow B ↓</text><rect x="440" y="140" width="260" height="40" rx="20" fill="#1A1A1A"/>
<text x="570" y="164" dy="0" font-family="'DM Mono','Courier New',monospace" font-size="10.5" font-weight="600" fill="#FFFFFF" text-anchor="middle">Dashboard — create experiment</text><line x1="570" y1="185" x2="570" y2="217" stroke="#CCCCCC" stroke-width="1.5" /><polygon points="570,225 565,216 575,216" fill="#CCCCCC"/><rect x="440" y="225" width="260" height="50" rx="4" fill="#EAF4EE" stroke="#1A5C3A" stroke-width="1.5"/>
<rect x="440" y="225" width="4" height="50" rx="2" fill="#1A5C3A"/>
<rect x="452" y="241" width="16" height="11" rx="2" fill="none" stroke="#1A5C3A" stroke-width="1.2"/>
<line x1="458" y1="252" x2="464" y2="252" stroke="#1A5C3A" stroke-width="1"/>
<text x="576" y="244" dy="0" font-family="'DM Mono','Courier New',monospace" font-size="11" font-weight="600" fill="#1A5C3A" text-anchor="middle">Name + date modal</text>
<text x="576" y="259" dy="0" font-family="'DM Mono','Courier New',monospace" font-size="9.5" font-weight="400" fill="#666666" text-anchor="middle">auto-fills today's date</text><line x1="570" y1="275" x2="570" y2="307" stroke="#CCCCCC" stroke-width="1.5" /><polygon points="570,315 565,306 575,306" fill="#CCCCCC"/><rect x="440" y="315" width="260" height="50" rx="4" fill="#EAF4EE" stroke="#1A5C3A" stroke-width="1.5"/>
<rect x="440" y="315" width="4" height="50" rx="2" fill="#1A5C3A"/>
<rect x="452" y="331" width="16" height="11" rx="2" fill="none" stroke="#1A5C3A" stroke-width="1.2"/>
<line x1="458" y1="342" x2="464" y2="342" stroke="#1A5C3A" stroke-width="1"/>
<text x="576" y="334" dy="0" font-family="'DM Mono','Courier New',monospace" font-size="11" font-weight="600" fill="#1A5C3A" text-anchor="middle">Blank canvas opens</text>
<text x="576" y="349" dy="0" font-family="'DM Mono','Courier New',monospace" font-size="9.5" font-weight="400" fill="#666666" text-anchor="middle">dot grid · 'Add Block' prompt</text><line x1="570" y1="365" x2="570" y2="397" stroke="#CCCCCC" stroke-width="1.5" /><polygon points="570,405 565,396 575,396" fill="#CCCCCC"/><rect x="440" y="405" width="260" height="50" rx="4" fill="#FFFFFF" stroke="#CCCCCC" stroke-width="1.2"/>
<rect x="440" y="405" width="4" height="50" rx="2" fill="#1A5C3A" opacity="0.5"/>
<text x="576" y="424" dy="0" font-family="'DM Mono','Courier New',monospace" font-size="10.5" font-weight="500" fill="#1A1A1A" text-anchor="middle">Clicks '+ Add Block'</text>
<text x="576" y="439" dy="0" font-family="'DM Mono','Courier New',monospace" font-size="9.5" font-weight="400" fill="#666666" text-anchor="middle">toolbar or canvas click</text><line x1="570" y1="455" x2="570" y2="487" stroke="#CCCCCC" stroke-width="1.5" /><polygon points="570,495 565,486 575,486" fill="#CCCCCC"/><rect x="440" y="495" width="260" height="50" rx="4" fill="#EAF4EE" stroke="#1A5C3A" stroke-width="1.5"/>
<rect x="440" y="495" width="4" height="50" rx="2" fill="#1A5C3A"/>
<rect x="452" y="511" width="16" height="11" rx="2" fill="none" stroke="#1A5C3A" stroke-width="1.2"/>
<line x1="458" y1="522" x2="464" y2="522" stroke="#1A5C3A" stroke-width="1"/>
<text x="576" y="514" dy="0" font-family="'DM Mono','Courier New',monospace" font-size="11" font-weight="600" fill="#1A5C3A" text-anchor="middle">Block type picker</text>
<text x="576" y="529" dy="0" font-family="'DM Mono','Courier New',monospace" font-size="9.5" font-weight="400" fill="#666666" text-anchor="middle">7 types · icon + label</text><line x1="570" y1="545" x2="570" y2="577" stroke="#CCCCCC" stroke-width="1.5" /><polygon points="570,585 565,576 575,576" fill="#CCCCCC"/><rect x="440" y="585" width="260" height="50" rx="4" fill="#FFFFFF" stroke="#CCCCCC" stroke-width="1.2"/>
<rect x="440" y="585" width="4" height="50" rx="2" fill="#1A5C3A" opacity="0.5"/>
<text x="576" y="604" dy="0" font-family="'DM Mono','Courier New',monospace" font-size="10.5" font-weight="500" fill="#1A1A1A" text-anchor="middle">Selects block type</text>
<text x="576" y="619" dy="0" font-family="'DM Mono','Courier New',monospace" font-size="9.5" font-weight="400" fill="#666666" text-anchor="middle">e.g. Protocol</text><line x1="570" y1="635" x2="570" y2="667" stroke="#CCCCCC" stroke-width="1.5" /><polygon points="570,675 565,666 575,666" fill="#CCCCCC"/><rect x="440" y="675" width="260" height="50" rx="4" fill="#EAF4EE" stroke="#1A5C3A" stroke-width="1.5"/>
<rect x="440" y="675" width="4" height="50" rx="2" fill="#1A5C3A"/>
<rect x="452" y="691" width="16" height="11" rx="2" fill="none" stroke="#1A5C3A" stroke-width="1.2"/>
<line x1="458" y1="702" x2="464" y2="702" stroke="#1A5C3A" stroke-width="1"/>
<text x="576" y="694" dy="0" font-family="'DM Mono','Courier New',monospace" font-size="11" font-weight="600" fill="#1A5C3A" text-anchor="middle">Block drops on canvas</text>
<text x="576" y="709" dy="0" font-family="'DM Mono','Courier New',monospace" font-size="9.5" font-weight="400" fill="#666666" text-anchor="middle">inline edit immediately active</text><line x1="570" y1="725" x2="570" y2="757" stroke="#CCCCCC" stroke-width="1.5" /><polygon points="570,765 565,756 575,756" fill="#CCCCCC"/><rect x="440" y="765" width="260" height="50" rx="4" fill="#FFFFFF" stroke="#CCCCCC" stroke-width="1.2"/>
<rect x="440" y="765" width="4" height="50" rx="2" fill="#1A5C3A" opacity="0.5"/>
<text x="576" y="784" dy="0" font-family="'DM Mono','Courier New',monospace" font-size="10.5" font-weight="500" fill="#1A1A1A" text-anchor="middle">Fills block inline</text>
<text x="576" y="799" dy="0" font-family="'DM Mono','Courier New',monospace" font-size="9.5" font-weight="400" fill="#666666" text-anchor="middle">type / paste / upload</text><line x1="570" y1="815" x2="570" y2="847" stroke="#CCCCCC" stroke-width="1.5" /><polygon points="570,855 565,846 575,846" fill="#CCCCCC"/><rect x="440" y="855" width="260" height="50" rx="4" fill="#FFFFFF" stroke="#CCCCCC" stroke-width="1.2"/>
<rect x="440" y="855" width="4" height="50" rx="2" fill="#1A5C3A" opacity="0.5"/>
<text x="576" y="874" dy="0" font-family="'DM Mono','Courier New',monospace" font-size="10.5" font-weight="500" fill="#1A1A1A" text-anchor="middle">Drags block to arrange</text>
<text x="576" y="889" dy="0" font-family="'DM Mono','Courier New',monospace" font-size="9.5" font-weight="400" fill="#666666" text-anchor="middle">spatial positioning</text><line x1="570" y1="905" x2="570" y2="937" stroke="#CCCCCC" stroke-width="1.5" /><polygon points="570,945 565,936 575,936" fill="#CCCCCC"/><polygon points="570,970 700,1008 570,1046 440,1008" fill="#FFFDF5" stroke="#1A5C3A" stroke-width="1.5"/>
<text x="570" y="1012" dy="0" font-family="'DM Mono','Courier New',monospace" font-size="9.5" font-weight="600" fill="#1A5C3A" text-anchor="middle">More blocks needed?</text><path d="M570,1046 V1066 H382 V490 H570" fill="none" stroke="#CCCCCC" stroke-width="1.3" stroke-dasharray="4,3"/><polygon points="570,490 565,481 575,481" fill="#CCCCCC"/><text x="378" y="1018" dy="0" font-family="'DM Mono','Courier New',monospace" font-size="9" font-weight="400" fill="#666666" text-anchor="end">yes</text><line x1="570" y1="1046" x2="570" y2="1078" stroke="#CCCCCC" stroke-width="1.5" /><polygon points="570,1086 565,1077 575,1077" fill="#CCCCCC"/><text x="588" y="1064" font-family="'DM Mono',monospace" font-size="9" fill="#1A5C3A" text-anchor="middle">no</text><rect x="440" y="1061" width="260" height="50" rx="4" fill="#EAF4EE" stroke="#1A5C3A" stroke-width="1.5"/>
<rect x="440" y="1061" width="4" height="50" rx="2" fill="#1A5C3A"/>
<rect x="452" y="1077" width="16" height="11" rx="2" fill="none" stroke="#1A5C3A" stroke-width="1.2"/>
<line x1="458" y1="1088" x2="464" y2="1088" stroke="#1A5C3A" stroke-width="1"/>
<text x="576" y="1080" dy="0" font-family="'DM Mono','Courier New',monospace" font-size="11" font-weight="600" fill="#1A5C3A" text-anchor="middle">Auto-saved indicator</text>
<text x="576" y="1095" dy="0" font-family="'DM Mono','Courier New',monospace" font-size="9.5" font-weight="400" fill="#666666" text-anchor="middle">"Saved just now"</text><line x1="570" y1="1111" x2="570" y2="1143" stroke="#CCCCCC" stroke-width="1.5" /><polygon points="570,1151 565,1142 575,1142" fill="#CCCCCC"/><rect x="440" y="1156" width="260" height="40" rx="20" fill="#1A5C3A"/>
<text x="570" y="1180" dy="0" font-family="'DM Mono','Courier New',monospace" font-size="10.5" font-weight="600" fill="#FFFFFF" text-anchor="middle">Experiment complete ✓</text><rect x="800" y="140" width="260" height="40" rx="20" fill="#1A1A1A"/>
<text x="930" y="164" dy="0" font-family="'DM Mono','Courier New',monospace" font-size="10.5" font-weight="600" fill="#FFFFFF" text-anchor="middle">Dashboard — 'From template'</text><line x1="930" y1="185" x2="930" y2="217" stroke="#CCCCCC" stroke-width="1.5" /><polygon points="930,225 925,216 935,216" fill="#CCCCCC"/><rect x="800" y="225" width="260" height="50" rx="4" fill="#EAF0FA" stroke="#1D3A6B" stroke-width="1.5"/>
<rect x="800" y="225" width="4" height="50" rx="2" fill="#1D3A6B"/>
<rect x="812" y="241" width="16" height="11" rx="2" fill="none" stroke="#1D3A6B" stroke-width="1.2"/>
<line x1="818" y1="252" x2="824" y2="252" stroke="#1D3A6B" stroke-width="1"/>
<text x="936" y="244" dy="0" font-family="'DM Mono','Courier New',monospace" font-size="11" font-weight="600" fill="#1D3A6B" text-anchor="middle">Template library</text>
<text x="936" y="259" dy="0" font-family="'DM Mono','Courier New',monospace" font-size="9.5" font-weight="400" fill="#666666" text-anchor="middle">grid view · category tabs</text><line x1="930" y1="275" x2="930" y2="307" stroke="#CCCCCC" stroke-width="1.5" /><polygon points="930,315 925,306 935,306" fill="#CCCCCC"/><rect x="800" y="315" width="260" height="50" rx="4" fill="#EAF0FA" stroke="#1D3A6B" stroke-width="1.5"/>
<rect x="800" y="315" width="4" height="50" rx="2" fill="#1D3A6B"/>
<rect x="812" y="331" width="16" height="11" rx="2" fill="none" stroke="#1D3A6B" stroke-width="1.2"/>
<line x1="818" y1="342" x2="824" y2="342" stroke="#1D3A6B" stroke-width="1"/>
<text x="936" y="334" dy="0" font-family="'DM Mono','Courier New',monospace" font-size="11" font-weight="600" fill="#1D3A6B" text-anchor="middle">Category filter</text>
<text x="936" y="349" dy="0" font-family="'DM Mono','Courier New',monospace" font-size="9.5" font-weight="400" fill="#666666" text-anchor="middle">PCR / Western / CRISPR / Culture / Cloning</text><line x1="930" y1="365" x2="930" y2="397" stroke="#CCCCCC" stroke-width="1.5" /><polygon points="930,405 925,396 935,396" fill="#CCCCCC"/><rect x="800" y="405" width="260" height="50" rx="4" fill="#FFFFFF" stroke="#CCCCCC" stroke-width="1.2"/>
<rect x="800" y="405" width="4" height="50" rx="2" fill="#1D3A6B" opacity="0.5"/>
<text x="936" y="424" dy="0" font-family="'DM Mono','Courier New',monospace" font-size="10.5" font-weight="500" fill="#1A1A1A" text-anchor="middle">Hovers template card</text>
<text x="936" y="439" dy="0" font-family="'DM Mono','Courier New',monospace" font-size="9.5" font-weight="400" fill="#666666" text-anchor="middle">preview thumbnail expands</text><line x1="930" y1="455" x2="930" y2="487" stroke="#CCCCCC" stroke-width="1.5" /><polygon points="930,495 925,486 935,486" fill="#CCCCCC"/><rect x="800" y="495" width="260" height="50" rx="4" fill="#EAF0FA" stroke="#1D3A6B" stroke-width="1.5"/>
<rect x="800" y="495" width="4" height="50" rx="2" fill="#1D3A6B"/>
<rect x="812" y="511" width="16" height="11" rx="2" fill="none" stroke="#1D3A6B" stroke-width="1.2"/>
<line x1="818" y1="522" x2="824" y2="522" stroke="#1D3A6B" stroke-width="1"/>
<text x="936" y="514" dy="0" font-family="'DM Mono','Courier New',monospace" font-size="11" font-weight="600" fill="#1D3A6B" text-anchor="middle">Template preview modal</text>
<text x="936" y="529" dy="0" font-family="'DM Mono','Courier New',monospace" font-size="9.5" font-weight="400" fill="#666666" text-anchor="middle">block layout · sample data</text><line x1="930" y1="545" x2="930" y2="577" stroke="#CCCCCC" stroke-width="1.5" /><polygon points="930,585 925,576 935,576" fill="#CCCCCC"/><rect x="800" y="585" width="260" height="50" rx="4" fill="#FFFFFF" stroke="#CCCCCC" stroke-width="1.2"/>
<rect x="800" y="585" width="4" height="50" rx="2" fill="#1D3A6B" opacity="0.5"/>
<text x="936" y="615" dy="0" font-family="'DM Mono','Courier New',monospace" font-size="10.5" font-weight="500" fill="#1A1A1A" text-anchor="middle">Clicks 'Use this template'</text><line x1="930" y1="635" x2="930" y2="667" stroke="#CCCCCC" stroke-width="1.5" /><polygon points="930,675 925,666 935,666" fill="#CCCCCC"/><rect x="800" y="675" width="260" height="50" rx="4" fill="#EAF0FA" stroke="#1D3A6B" stroke-width="1.5"/>
<rect x="800" y="675" width="4" height="50" rx="2" fill="#1D3A6B"/>
<rect x="812" y="691" width="16" height="11" rx="2" fill="none" stroke="#1D3A6B" stroke-width="1.2"/>
<line x1="818" y1="702" x2="824" y2="702" stroke="#1D3A6B" stroke-width="1"/>
<text x="936" y="694" dy="0" font-family="'DM Mono','Courier New',monospace" font-size="11" font-weight="600" fill="#1D3A6B" text-anchor="middle">Name experiment modal</text>
<text x="936" y="709" dy="0" font-family="'DM Mono','Courier New',monospace" font-size="9.5" font-weight="400" fill="#666666" text-anchor="middle">date auto-filled</text><line x1="930" y1="725" x2="930" y2="757" stroke="#CCCCCC" stroke-width="1.5" /><polygon points="930,765 925,756 935,756" fill="#CCCCCC"/><rect x="800" y="765" width="260" height="50" rx="4" fill="#EAF0FA" stroke="#1D3A6B" stroke-width="1.5"/>
<rect x="800" y="765" width="4" height="50" rx="2" fill="#1D3A6B"/>
<rect x="812" y="781" width="16" height="11" rx="2" fill="none" stroke="#1D3A6B" stroke-width="1.2"/>
<line x1="818" y1="792" x2="824" y2="792" stroke="#1D3A6B" stroke-width="1"/>
<text x="936" y="784" dy="0" font-family="'DM Mono','Courier New',monospace" font-size="11" font-weight="600" fill="#1D3A6B" text-anchor="middle">Canvas opens with template blocks</text>
<text x="936" y="799" dy="0" font-family="'DM Mono','Courier New',monospace" font-size="9.5" font-weight="400" fill="#666666" text-anchor="middle">pre-placed · editable · deletable</text><line x1="930" y1="815" x2="930" y2="847" stroke="#CCCCCC" stroke-width="1.5" /><polygon points="930,855 925,846 935,846" fill="#CCCCCC"/><rect x="800" y="855" width="260" height="50" rx="4" fill="#FFFFFF" stroke="#CCCCCC" stroke-width="1.2"/>
<rect x="800" y="855" width="4" height="50" rx="2" fill="#1D3A6B" opacity="0.5"/>
<text x="936" y="874" dy="0" font-family="'DM Mono','Courier New',monospace" font-size="10.5" font-weight="500" fill="#1A1A1A" text-anchor="middle">Edits / removes / adds blocks freely</text>
<text x="936" y="889" dy="0" font-family="'DM Mono','Courier New',monospace" font-size="9.5" font-weight="400" fill="#666666" text-anchor="middle">full canvas freedom retained</text><line x1="930" y1="905" x2="930" y2="937" stroke="#CCCCCC" stroke-width="1.5" /><polygon points="930,945 925,936 935,936" fill="#CCCCCC"/><polygon points="930,970 1060,1008 930,1046 800,1008" fill="#FFFDF5" stroke="#1D3A6B" stroke-width="1.5"/>
<text x="930" y="1012" dy="0" font-family="'DM Mono','Courier New',monospace" font-size="9.5" font-weight="600" fill="#1D3A6B" text-anchor="middle">Satisfied with layout?</text><path d="M1060,1008 H1118 V820 H930" fill="none" stroke="#CCCCCC" stroke-width="1.3" stroke-dasharray="4,3"/><polygon points="930,820 925,811 935,811" fill="#CCCCCC"/><text x="1122" y="1002" dy="0" font-family="'DM Mono','Courier New',monospace" font-size="9" font-weight="400" fill="#666666" text-anchor="start">no →</text><text x="1122" y="1014" dy="0" font-family="'DM Mono','Courier New',monospace" font-size="9" font-weight="400" fill="#666666" text-anchor="start">tweak</text><line x1="930" y1="1046" x2="930" y2="1073" stroke="#CCCCCC" stroke-width="1.5" /><polygon points="930,1081 925,1072 935,1072" fill="#CCCCCC"/><text x="948" y="1060" font-family="'DM Mono',monospace" font-size="9" fill="#1D3A6B" text-anchor="middle">yes</text><rect x="800" y="1071" width="260" height="50" rx="4" fill="#EAF0FA" stroke="#1D3A6B" stroke-width="1.5"/>
<rect x="800" y="1071" width="4" height="50" rx="2" fill="#1D3A6B"/>
<rect x="812" y="1087" width="16" height="11" rx="2" fill="none" stroke="#1D3A6B" stroke-width="1.2"/>
<line x1="818" y1="1098" x2="824" y2="1098" stroke="#1D3A6B" stroke-width="1"/>
<text x="936" y="1090" dy="0" font-family="'DM Mono','Courier New',monospace" font-size="11" font-weight="600" fill="#1D3A6B" text-anchor="middle">Continues filling data</text>
<text x="936" y="1105" dy="0" font-family="'DM Mono','Courier New',monospace" font-size="9.5" font-weight="400" fill="#666666" text-anchor="middle">same as Flow B from here</text><line x1="930" y1="1121" x2="930" y2="1153" stroke="#CCCCCC" stroke-width="1.5" /><polygon points="930,1161 925,1152 935,1152" fill="#CCCCCC"/><rect x="800" y="1166" width="260" height="40" rx="20" fill="#1D3A6B"/>
<text x="930" y="1190" dy="0" font-family="'DM Mono','Courier New',monospace" font-size="10.5" font-weight="600" fill="#FFFFFF" text-anchor="middle">Into Flow B ↓</text><rect x="1160" y="140" width="260" height="40" rx="20" fill="#1A1A1A"/>
<text x="1290" y="164" dy="0" font-family="'DM Mono','Courier New',monospace" font-size="10.5" font-weight="600" fill="#FFFFFF" text-anchor="middle">Experiment open on canvas</text><line x1="1290" y1="185" x2="1290" y2="217" stroke="#CCCCCC" stroke-width="1.5" /><polygon points="1290,225 1285,216 1295,216" fill="#CCCCCC"/><rect x="1160" y="225" width="260" height="50" rx="4" fill="#FFFFFF" stroke="#CCCCCC" stroke-width="1.2"/>
<rect x="1160" y="225" width="4" height="50" rx="2" fill="#6B2D5E" opacity="0.5"/>
<text x="1296" y="255" dy="0" font-family="'DM Mono','Courier New',monospace" font-size="10.5" font-weight="500" fill="#1A1A1A" text-anchor="middle">Clicks 'Share' in toolbar</text><line x1="1290" y1="275" x2="1290" y2="307" stroke="#CCCCCC" stroke-width="1.5" /><polygon points="1290,315 1285,306 1295,306" fill="#CCCCCC"/><rect x="1160" y="315" width="260" height="50" rx="4" fill="#F5EAF3" stroke="#6B2D5E" stroke-width="1.5"/>
<rect x="1160" y="315" width="4" height="50" rx="2" fill="#6B2D5E"/>
<rect x="1172" y="331" width="16" height="11" rx="2" fill="none" stroke="#6B2D5E" stroke-width="1.2"/>
<line x1="1178" y1="342" x2="1184" y2="342" stroke="#6B2D5E" stroke-width="1"/>
<text x="1296" y="334" dy="0" font-family="'DM Mono','Courier New',monospace" font-size="11" font-weight="600" fill="#6B2D5E" text-anchor="middle">Share modal</text>
<text x="1296" y="349" dy="0" font-family="'DM Mono','Courier New',monospace" font-size="9.5" font-weight="400" fill="#666666" text-anchor="middle">read-only · read + comment</text><line x1="1290" y1="365" x2="1290" y2="397" stroke="#CCCCCC" stroke-width="1.5" /><polygon points="1290,405 1285,396 1295,396" fill="#CCCCCC"/><rect x="1160" y="405" width="260" height="50" rx="4" fill="#FFFFFF" stroke="#CCCCCC" stroke-width="1.2"/>
<rect x="1160" y="405" width="4" height="50" rx="2" fill="#6B2D5E" opacity="0.5"/>
<text x="1296" y="424" dy="0" font-family="'DM Mono','Courier New',monospace" font-size="10.5" font-weight="500" fill="#1A1A1A" text-anchor="middle">Copies share link</text>
<text x="1296" y="439" dy="0" font-family="'DM Mono','Courier New',monospace" font-size="9.5" font-weight="400" fill="#666666" text-anchor="middle">one click · no expiry</text><line x1="1290" y1="455" x2="1290" y2="487" stroke="#CCCCCC" stroke-width="1.5" /><polygon points="1290,495 1285,486 1295,486" fill="#CCCCCC"/><rect x="1160" y="495" width="260" height="50" rx="4" fill="#FFFFFF" stroke="#CCCCCC" stroke-width="1.2"/>
<rect x="1160" y="495" width="4" height="50" rx="2" fill="#6B2D5E" opacity="0.5"/>
<text x="1296" y="514" dy="0" font-family="'DM Mono','Courier New',monospace" font-size="10.5" font-weight="500" fill="#1A1A1A" text-anchor="middle">Sends link to PI / collaborator</text>
<text x="1296" y="529" dy="0" font-family="'DM Mono','Courier New',monospace" font-size="9.5" font-weight="400" fill="#666666" text-anchor="middle">via email / Slack / WhatsApp</text><line x1="1290" y1="545" x2="1290" y2="577" stroke="#CCCCCC" stroke-width="1.5" /><polygon points="1290,585 1285,576 1295,576" fill="#CCCCCC"/><rect x="1130" y="602" width="320" height="4" rx="2" fill="#6B2D5E" opacity="0.25"/><text x="1290" y="620" dy="0" font-family="'DM Mono','Courier New',monospace" font-size="8.5" font-weight="600" fill="#6B2D5E" text-anchor="middle">— RECIPIENT EXPERIENCE —</text><rect x="1160" y="613" width="260" height="50" rx="4" fill="#F5EAF3" stroke="#6B2D5E" stroke-width="1.5"/>
<rect x="1160" y="613" width="4" height="50" rx="2" fill="#6B2D5E"/>
<rect x="1172" y="629" width="16" height="11" rx="2" fill="none" stroke="#6B2D5E" stroke-width="1.2"/>
<line x1="1178" y1="640" x2="1184" y2="640" stroke="#6B2D5E" stroke-width="1"/>
<text x="1296" y="632" dy="0" font-family="'DM Mono','Courier New',monospace" font-size="11" font-weight="600" fill="#6B2D5E" text-anchor="middle">Opens link (no login needed)</text>
<text x="1296" y="647" dy="0" font-family="'DM Mono','Courier New',monospace" font-size="9.5" font-weight="400" fill="#666666" text-anchor="middle">read-only view loads</text><line x1="1290" y1="663" x2="1290" y2="695" stroke="#CCCCCC" stroke-width="1.5" /><polygon points="1290,703 1285,694 1295,694" fill="#CCCCCC"/><rect x="1160" y="703" width="260" height="50" rx="4" fill="#F5EAF3" stroke="#6B2D5E" stroke-width="1.5"/>
<rect x="1160" y="703" width="4" height="50" rx="2" fill="#6B2D5E"/>
<rect x="1172" y="719" width="16" height="11" rx="2" fill="none" stroke="#6B2D5E" stroke-width="1.2"/>
<line x1="1178" y1="730" x2="1184" y2="730" stroke="#6B2D5E" stroke-width="1"/>
<text x="1296" y="722" dy="0" font-family="'DM Mono','Courier New',monospace" font-size="11" font-weight="600" fill="#6B2D5E" text-anchor="middle">Canvas visible · blocks readable</text>
<text x="1296" y="737" dy="0" font-family="'DM Mono','Courier New',monospace" font-size="9.5" font-weight="400" fill="#666666" text-anchor="middle">cannot edit blocks</text><line x1="1290" y1="753" x2="1290" y2="785" stroke="#CCCCCC" stroke-width="1.5" /><polygon points="1290,793 1285,784 1295,784" fill="#CCCCCC"/><rect x="1160" y="793" width="260" height="50" rx="4" fill="#FFFFFF" stroke="#CCCCCC" stroke-width="1.2"/>
<rect x="1160" y="793" width="4" height="50" rx="2" fill="#6B2D5E" opacity="0.5"/>
<text x="1296" y="812" dy="0" font-family="'DM Mono','Courier New',monospace" font-size="10.5" font-weight="500" fill="#1A1A1A" text-anchor="middle">Clicks 'Add comment'</text>
<text x="1296" y="827" dy="0" font-family="'DM Mono','Courier New',monospace" font-size="9.5" font-weight="400" fill="#666666" text-anchor="middle">if read+comment link</text><line x1="1290" y1="843" x2="1290" y2="875" stroke="#CCCCCC" stroke-width="1.5" /><polygon points="1290,883 1285,874 1295,874" fill="#CCCCCC"/><rect x="1160" y="883" width="260" height="50" rx="4" fill="#F5EAF3" stroke="#6B2D5E" stroke-width="1.5"/>
<rect x="1160" y="883" width="4" height="50" rx="2" fill="#6B2D5E"/>
<rect x="1172" y="899" width="16" height="11" rx="2" fill="none" stroke="#6B2D5E" stroke-width="1.2"/>
<line x1="1178" y1="910" x2="1184" y2="910" stroke="#6B2D5E" stroke-width="1"/>
<text x="1296" y="902" dy="0" font-family="'DM Mono','Courier New',monospace" font-size="11" font-weight="600" fill="#6B2D5E" text-anchor="middle">Comment sidebar opens</text>
<text x="1296" y="917" dy="0" font-family="'DM Mono','Courier New',monospace" font-size="9.5" font-weight="400" fill="#666666" text-anchor="middle">name (no account) + text</text><line x1="1290" y1="933" x2="1290" y2="965" stroke="#CCCCCC" stroke-width="1.5" /><polygon points="1290,973 1285,964 1295,964" fill="#CCCCCC"/><rect x="1160" y="973" width="260" height="50" rx="4" fill="#FFFFFF" stroke="#CCCCCC" stroke-width="1.2"/>
<rect x="1160" y="973" width="4" height="50" rx="2" fill="#6B2D5E" opacity="0.5"/>
<text x="1296" y="992" dy="0" font-family="'DM Mono','Courier New',monospace" font-size="10.5" font-weight="500" fill="#1A1A1A" text-anchor="middle">Submits comment</text>
<text x="1296" y="1007" dy="0" font-family="'DM Mono','Courier New',monospace" font-size="9.5" font-weight="400" fill="#666666" text-anchor="middle">timestamped + threaded</text><line x1="1290" y1="1023" x2="1290" y2="1055" stroke="#CCCCCC" stroke-width="1.5" /><polygon points="1290,1063 1285,1054 1295,1054" fill="#CCCCCC"/><rect x="1130" y="1080" width="320" height="4" rx="2" fill="#1A1A1A" opacity="0.15"/><text x="1290" y="1098" dy="0" font-family="'DM Mono','Courier New',monospace" font-size="8.5" font-weight="600" fill="#1A1A1A" text-anchor="middle">— OWNER NOTIFIED —</text><rect x="1160" y="1091" width="260" height="50" rx="4" fill="#F5EAF3" stroke="#6B2D5E" stroke-width="1.5"/>
<rect x="1160" y="1091" width="4" height="50" rx="2" fill="#6B2D5E"/>
<rect x="1172" y="1107" width="16" height="11" rx="2" fill="none" stroke="#6B2D5E" stroke-width="1.2"/>
<line x1="1178" y1="1118" x2="1184" y2="1118" stroke="#6B2D5E" stroke-width="1"/>
<text x="1296" y="1110" dy="0" font-family="'DM Mono','Courier New',monospace" font-size="11" font-weight="600" fill="#6B2D5E" text-anchor="middle">Owner sees comment badge</text>
<text x="1296" y="1125" dy="0" font-family="'DM Mono','Courier New',monospace" font-size="9.5" font-weight="400" fill="#666666" text-anchor="middle">sidebar notification dot</text><line x1="1290" y1="1141" x2="1290" y2="1173" stroke="#CCCCCC" stroke-width="1.5" /><polygon points="1290,1181 1285,1172 1295,1172" fill="#CCCCCC"/><rect x="1160" y="1181" width="260" height="50" rx="4" fill="#FFFFFF" stroke="#CCCCCC" stroke-width="1.2"/>
<rect x="1160" y="1181" width="4" height="50" rx="2" fill="#6B2D5E" opacity="0.5"/>
<text x="1296" y="1200" dy="0" font-family="'DM Mono','Courier New',monospace" font-size="10.5" font-weight="500" fill="#1A1A1A" text-anchor="middle">Replies or resolves</text>
<text x="1296" y="1215" dy="0" font-family="'DM Mono','Courier New',monospace" font-size="9.5" font-weight="400" fill="#666666" text-anchor="middle">inline thread</text><line x1="1290" y1="1231" x2="1290" y2="1263" stroke="#CCCCCC" stroke-width="1.5" /><polygon points="1290,1271 1285,1262 1295,1262" fill="#CCCCCC"/><rect x="1160" y="1276" width="260" height="40" rx="20" fill="#6B2D5E"/>
<text x="1290" y="1300" dy="0" font-family="'DM Mono','Courier New',monospace" font-size="10.5" font-weight="600" fill="#FFFFFF" text-anchor="middle">Experiment reviewed ✓</text><rect x="40" y="2520" width="1420" height="50" rx="4" fill="rgba(255,255,255,0.75)" stroke="#E0E0E0" stroke-width="1"/><text x="60" y="2538" dy="0" font-family="'DM Mono','Courier New',monospace" font-size="8.5" font-weight="700" fill="#CCCCCC" text-anchor="start">LEGEND</text><rect x="160" y="2542" width="14" height="14" rx="2" fill="#1A1A1A" stroke="#EBEBEB" stroke-width="1.5"/><text x="180" y="2554" dy="0" font-family="'DM Mono','Courier New',monospace" font-size="9.5" font-weight="400" fill="#666666" text-anchor="start">Screen / Page</text><rect x="340" y="2542" width="14" height="14" rx="2" fill="#FFFFFF" stroke="#CCCCCC" stroke-width="1.5"/><text x="360" y="2554" dy="0" font-family="'DM Mono','Courier New',monospace" font-size="9.5" font-weight="400" fill="#666666" text-anchor="start">User Action</text><rect x="520" y="2542" width="14" height="14" rx="2" fill="#1A1A1A" stroke="#1A1A1A" stroke-width="1.5"/><text x="540" y="2554" dy="0" font-family="'DM Mono','Courier New',monospace" font-size="9.5" font-weight="400" fill="#666666" text-anchor="start">Start / End (pill)</text><rect x="700" y="2542" width="14" height="14" rx="2" fill="#B45309" stroke="#B45309" stroke-width="1.5"/><text x="720" y="2554" dy="0" font-family="'DM Mono','Courier New',monospace" font-size="9.5" font-weight="400" fill="#666666" text-anchor="start">Decision (diamond)</text><rect x="880" y="2542" width="14" height="14" rx="2" fill="#CCCCCC" stroke="#CCCCCC" stroke-width="1.5"/><text x="900" y="2554" dy="0" font-family="'DM Mono','Courier New',monospace" font-size="9.5" font-weight="400" fill="#666666" text-anchor="start">Loop / branch</text><text x="1450" y="2564" dy="0" font-family="'DM Mono','Courier New',monospace" font-size="9" font-weight="400" fill="#CCCCCC" text-anchor="end">notebook · MVP user flows v1.0</text>
</svg>